# File created by Blade
# Date/Time:  Thu Jan 22 16:25:48 2015
# Frame Rate: 120.000 fps
#------------------------------------------------------
:FULLY-SPECIFIED
:DEGREES
568
root 2.418509 39.432889 9.308651 57.830227 15.784252 41.855708
RightUpLeg -44.517019 -14.096972 -36.363935
RightLeg 15.251806 -0.000000 -0.000000
RightFoot -12.549653 -22.426147 15.530273
RightToeBase 11.622753 -0.000000 -0.000000
LeftUpLeg 3.050374 -21.175727 15.101964
LeftLeg 144.932396 -0.000000 -0.000000
LeftFoot 22.232549 11.054527 -25.727831
LeftToeBase 0.066415 -0.000000 -0.000000
Spine 17.863362 -6.348428 -5.124766
RightShoulder -12.820553 0.629145 -49.826417
RightArm 36.118338 52.601836 21.748835
RightForeArm 2.827693 -0.000000 15.749616
RightHand 10.510401 -0.000000 -21.697068
RightHandThumb1 -24.326973 -0.000000 -32.862282
LeftShoulder -32.965171 35.599475 -14.456782
LeftArm 27.908456 -12.766832 -85.313949
LeftForeArm 39.800351 -0.000000 10.572003
LeftHand -16.158500 0.000000 -20.705296
LeftHandThumb1 -26.253704 0.000000 33.147579
Head -21.106846 -18.276719 -11.117470
569
root 2.445484 39.469078 9.296120 57.806953 15.542419 42.127160
RightUpLeg -44.548409 -14.573903 -36.255357
RightLeg 15.195171 -0.000000 -0.000000
RightFoot -12.190964 -22.711904 15.104631
RightToeBase 11.272521 -0.000000 -0.000000
LeftUpLeg 3.157484 -21.461368 14.888225
LeftLeg 144.771758 -0.000000 -0.000000
LeftFoot 21.919641 11.110638 -26.078963
LeftToeBase 0.145780 -0.000000 -0.000000
Spine 18.219960 -6.400935 -5.436133
RightShoulder -12.778897 0.718023 -49.908821
RightArm 35.438915 52.380681 21.187378
RightForeArm 2.594993 0.000000 15.675036
RightHand 10.264425 -0.000000 -21.163582
RightHandThumb1 -24.326973 -0.000000 -32.862282
LeftShoulder -32.906108 35.543691 -14.454094
LeftArm 27.877918 -13.041645 -85.351078
LeftForeArm 39.944065 0.000000 10.809592
LeftHand -16.216458 -0.000000 -20.088265
LeftHandThumb1 -26.253704 0.000000 33.147579
Head -21.068163 -18.705736 -11.201528
570
root 2.467436 39.501747 9.284300 57.743581 15.315470 42.282576
RightUpLeg -44.683056 -15.026092 -36.010636
RightLeg 15.189335 -0.000000 -0.000000
RightFoot -11.829564 -22.923864 14.687088
RightToeBase 11.132294 -0.000000 -0.000000
LeftUpLeg 3.379926 -21.731111 14.738827
LeftLeg 144.535087 -0.000000 -0.000000
LeftFoot 21.444872 11.407873 -26.333196
LeftToeBase -0.008459 -0.000000 0.000000
Spine 18.551345 -6.281618 -5.620014
RightShoulder -12.747730 0.776025 -49.989534
RightArm 34.722670 52.166226 20.559339
RightForeArm 2.524672 -0.000000 15.611625
RightHand 10.154359 0.000000 -20.715867
RightHandThumb1 -24.326973 -0.000000 -32.862282
LeftShoulder -32.802887 35.484523 -14.410080
LeftArm 27.843631 -13.264289 -85.348622
LeftForeArm 40.411673 0.000000 11.137649
LeftHand -16.294132 -0.000000 -19.499305
LeftHandThumb1 -26.253704 0.000000 33.147579
Head -20.955983 -19.129522 -11.372258
571
root 2.492124 39.536668 9.270265 57.724172 15.113792 42.424776
RightUpLeg -44.872609 -15.575859 -35.679196
RightLeg 15.196281 -0.000000 -0.000000
RightFoot -11.438404 -23.032236 14.306480
RightToeBase 10.843265 -0.000000 -0.000000
LeftUpLeg 3.614084 -22.002779 14.606296
LeftLeg 144.274693 -0.000000 -0.000000
LeftFoot 20.811469 11.911827 -26.439976
LeftToeBase 0.226878 -0.000000 -0.000000
Spine 18.778095 -6.135278 -5.710355
RightShoulder -12.723262 0.735391 -50.074413
RightArm 34.288414 52.147661 20.218332
RightForeArm 2.467134 -0.000000 15.534203
RightHand 10.234627 -0.000000 -20.586951
RightHandThumb1 -24.326973 -0.000000 -32.862282
LeftShoulder -32.730673 35.478301 -14.430782
LeftArm 27.856261 -13.372519 -85.250454
LeftForeArm 41.044203 0.000000 11.485104
LeftHand -16.405868 0.000000 -18.956500
LeftHandThumb1 -26.253704 0.000000 33.147579
Head -20.729411 -19.507132 -11.750247
